# Blender v2.79 (sub 0) OBJ File: 'spotlight.blend'
# www.blender.org
mtllib SpotlightHolder.mtl
o SpotlightHolder
v -0.112113 -0.135266 -0.008917
v 0.111017 -0.135266 -0.008917
v -0.112113 -0.135266 0.008917
v 0.111017 -0.135266 0.008917
v 0.098839 -0.135266 -0.008917
v -0.099935 -0.135266 -0.008917
v -0.096505 -0.119749 -0.008917
v 0.096505 -0.119749 -0.008917
v -0.099935 -0.135266 0.008917
v 0.098839 -0.135266 0.008917
v 0.096505 -0.119749 0.008917
v -0.096505 -0.119749 0.008917
v -0.099935 -0.276609 -0.008917
v -0.112113 -0.276609 -0.008917
v 0.111017 -0.276609 0.008917
v 0.111017 -0.276609 -0.008917
v 0.098839 -0.276609 0.008917
v -0.112113 -0.276609 0.008917
v 0.098839 -0.276609 -0.008917
v -0.099935 -0.276609 0.008917
v -0.008171 -0.119749 -0.008917
v 0.008171 -0.119749 -0.008917
v 0.008171 -0.119749 0.008917
v -0.008171 -0.119749 0.008917
v -0.008171 0.000000 -0.008917
v 0.008171 0.000000 -0.008917
v 0.008171 0.000000 0.008917
v -0.008171 0.000000 0.008917
v -0.109629 -0.129046 -0.008917
v -0.103241 -0.122307 -0.008917
v 0.103241 -0.122307 -0.008917
v 0.109191 -0.129242 -0.008917
v -0.103241 -0.122307 0.008917
v -0.109629 -0.129046 0.008917
v 0.109191 -0.129242 0.008917
v 0.103241 -0.122307 0.008917
v -0.094134 -0.247766 0.001397
v -0.094134 -0.251720 0.016153
v -0.094134 -0.262522 0.026955
v -0.094134 -0.277277 0.030908
v -0.094134 -0.292033 0.026955
v -0.094134 -0.302835 0.016153
v -0.094134 -0.306789 0.001397
v -0.094134 -0.302835 -0.013359
v -0.094134 -0.292033 -0.024160
v -0.094134 -0.277277 -0.028114
v -0.094134 -0.262522 -0.024160
v -0.094134 -0.251720 -0.013359
v -0.118433 -0.277277 0.001397
v -0.113480 -0.247766 0.001397
v -0.118433 -0.252894 0.001397
v -0.118433 -0.256160 0.013589
v -0.113480 -0.251720 0.016153
v -0.118433 -0.265085 0.022514
v -0.113480 -0.262522 0.026955
v -0.118433 -0.277277 0.025781
v -0.113480 -0.277277 0.030908
v -0.118433 -0.289469 0.022514
v -0.113480 -0.292033 0.026955
v -0.118433 -0.298394 0.013589
v -0.113480 -0.302835 0.016153
v -0.118433 -0.301661 0.001397
v -0.113480 -0.306789 0.001397
v -0.118433 -0.298394 -0.010795
v -0.113480 -0.302835 -0.013359
v -0.118433 -0.289469 -0.019720
v -0.113480 -0.292033 -0.024160
v -0.118433 -0.277277 -0.022987
v -0.113480 -0.277277 -0.028114
v -0.118433 -0.265085 -0.019720
v -0.113480 -0.262522 -0.024160
v -0.118433 -0.256160 -0.010795
v -0.113480 -0.251720 -0.013359
v 0.094134 -0.247766 0.001397
v 0.094134 -0.251720 0.016153
v 0.094134 -0.262522 0.026955
v 0.094134 -0.277277 0.030908
v 0.094134 -0.292033 0.026955
v 0.094134 -0.302835 0.016153
v 0.094134 -0.306789 0.001397
v 0.094134 -0.302835 -0.013359
v 0.094134 -0.292033 -0.024160
v 0.094134 -0.277277 -0.028114
v 0.094134 -0.262522 -0.024160
v 0.094134 -0.251720 -0.013359
v 0.118433 -0.277277 0.001397
v 0.113481 -0.247766 0.001397
v 0.118433 -0.252894 0.001397
v 0.118433 -0.256160 0.013589
v 0.113481 -0.251720 0.016153
v 0.118433 -0.265085 0.022514
v 0.113481 -0.262522 0.026955
v 0.118433 -0.277277 0.025781
v 0.113481 -0.277277 0.030908
v 0.118433 -0.289469 0.022514
v 0.113481 -0.292033 0.026955
v 0.118433 -0.298394 0.013589
v 0.113481 -0.302835 0.016153
v 0.118433 -0.301661 0.001397
v 0.113481 -0.306789 0.001397
v 0.118433 -0.298394 -0.010795
v 0.113481 -0.302835 -0.013359
v 0.118433 -0.289469 -0.019720
v 0.113481 -0.292033 -0.024160
v 0.118433 -0.277277 -0.022987
v 0.113481 -0.277277 -0.028114
v 0.118433 -0.265085 -0.019720
v 0.113481 -0.262522 -0.024160
v 0.118433 -0.256160 -0.010795
v 0.113481 -0.251720 -0.013359
vt 0.588885 0.798344
vt 0.605593 0.794651
vt 0.602840 0.801904
vt 0.588885 0.571194
vt 0.595371 0.573160
vt 0.588885 0.584307
vt 0.588885 0.584307
vt 0.605593 0.586819
vt 0.602840 0.579566
vt 0.834571 0.858920
vt 0.834571 0.873254
vt 0.674796 0.873254
vt 0.674796 0.858919
vt 0.605593 0.586819
vt 0.588885 0.798344
vt 0.605593 0.794651
vt 0.948182 0.858920
vt 0.948182 0.873254
vt 0.588885 0.811457
vt 0.436689 0.798344
vt 0.436689 0.811457
vt 0.436689 0.584307
vt 0.436689 0.571194
vt 0.588885 0.811457
vt 0.436689 0.811457
vt 0.436689 0.798344
vt 0.561184 0.873254
vt 0.561184 0.858919
vt 0.588885 0.571194
vt 0.436689 0.571194
vt 0.436689 0.584307
vt 0.429155 0.674516
vt 0.429155 0.655835
vt 0.566046 0.655835
vt 0.566046 0.674516
vt 0.429155 0.643176
vt 0.429155 0.622789
vt 0.566046 0.622789
vt 0.566046 0.643176
vt 0.429155 0.604107
vt 0.566046 0.604107
vt 0.429155 0.694903
vt 0.566046 0.694903
vt 0.595582 0.808782
vt 0.602840 0.579566
vt 0.595371 0.573160
vt 0.602840 0.801904
vt 0.595582 0.808782
vt 0.438363 0.776963
vt 0.438363 0.746474
vt 0.466302 0.746474
vt 0.466302 0.776963
vt 0.866773 0.849297
vt 0.861713 0.849297
vt 0.861713 0.834962
vt 0.866773 0.834962
vt 0.693434 0.834962
vt 0.693434 0.849297
vt 0.687643 0.849297
vt 0.687643 0.834962
vt 0.980385 0.834962
vt 0.980385 0.849297
vt 0.854368 0.834962
vt 0.854368 0.849297
vt 0.848577 0.849297
vt 0.848577 0.834962
vt 0.674796 0.834962
vt 0.674796 0.849297
vt 0.561184 0.849297
vt 0.561184 0.834962
vt 0.680179 0.834962
vt 0.680179 0.849297
vt 0.658043 0.568791
vt 0.631516 0.568791
vt 0.631516 0.547845
vt 0.658043 0.547845
vt 0.562401 0.758316
vt 0.554939 0.771103
vt 0.534841 0.750744
vt 0.562461 0.743534
vt 0.555134 0.730719
vt 0.542402 0.723290
vt 0.527679 0.723204
vt 0.514875 0.730443
vt 0.507291 0.743043
vt 0.507327 0.757783
vt 0.514338 0.770800
vt 0.658043 0.589738
vt 0.631516 0.589738
vt 0.527199 0.778157
vt 0.542044 0.778421
vt 0.658043 0.610685
vt 0.631516 0.610685
vt 0.658043 0.631631
vt 0.631516 0.631631
vt 0.658043 0.652578
vt 0.631516 0.652578
vt 0.658043 0.673525
vt 0.631516 0.673525
vt 0.658043 0.694471
vt 0.631516 0.694471
vt 0.658043 0.715418
vt 0.631516 0.715418
vt 0.658043 0.778258
vt 0.631516 0.778258
vt 0.631516 0.757312
vt 0.658043 0.757312
vt 0.658043 0.799205
vt 0.631516 0.799205
vt 0.658043 0.736365
vt 0.631516 0.736365
vt 0.561305 0.777279
vt 0.544442 0.787016
vt 0.570980 0.760466
vt 0.570950 0.741110
vt 0.561265 0.724388
vt 0.544549 0.714758
vt 0.525298 0.714758
vt 0.508658 0.724311
vt 0.498980 0.740719
vt 0.498645 0.759978
vt 0.508073 0.776890
vt 0.524784 0.786903
vt 0.658043 0.568791
vt 0.658043 0.547845
vt 0.631516 0.547845
vt 0.631516 0.568791
vt 0.562401 0.758316
vt 0.534841 0.750744
vt 0.554939 0.771103
vt 0.562461 0.743534
vt 0.555134 0.730719
vt 0.542402 0.723290
vt 0.527679 0.723204
vt 0.514875 0.730443
vt 0.507291 0.743043
vt 0.507327 0.757783
vt 0.514338 0.770800
vt 0.658043 0.589738
vt 0.631516 0.589738
vt 0.527199 0.778157
vt 0.542044 0.778421
vt 0.658043 0.610685
vt 0.631516 0.610685
vt 0.658043 0.631631
vt 0.631516 0.631631
vt 0.658043 0.652578
vt 0.631516 0.652578
vt 0.658043 0.673525
vt 0.631516 0.673525
vt 0.658043 0.694471
vt 0.631516 0.694471
vt 0.658043 0.715418
vt 0.631516 0.715418
vt 0.658043 0.778258
vt 0.658043 0.757312
vt 0.631516 0.757312
vt 0.631516 0.778258
vt 0.658043 0.799205
vt 0.631516 0.799205
vt 0.658043 0.736365
vt 0.631516 0.736365
vt 0.561305 0.777279
vt 0.544442 0.787016
vt 0.570980 0.760466
vt 0.570950 0.741110
vt 0.561265 0.724388
vt 0.544549 0.714758
vt 0.525298 0.714758
vt 0.508658 0.724311
vt 0.498980 0.740719
vt 0.498645 0.759978
vt 0.508073 0.776890
vt 0.524784 0.786903
vn 0.0000 0.0000 1.0000
vn -0.0000 0.0000 -1.0000
vn 0.0000 -1.0000 0.0000
vn -1.0000 0.0000 0.0000
vn 1.0000 0.0000 0.0000
vn 0.0000 1.0000 -0.0000
vn 0.9892 0.1466 0.0000
vn 0.8768 0.4809 0.0000
vn -0.1805 0.9836 0.0000
vn -0.5543 0.8323 0.0000
vn 0.5748 0.8183 0.0000
vn 0.1805 0.9836 0.0000
vn -0.9820 0.1888 0.0000
vn -0.8423 0.5390 0.0000
vn -0.0000 0.8660 -0.5000
vn -0.3692 0.8048 -0.4647
vn -0.3692 0.9293 0.0000
vn -0.9049 0.2129 0.3687
vn -0.9048 0.3687 0.2129
vn -0.9049 0.0000 0.4257
vn -0.9049 -0.2129 0.3687
vn -0.9049 -0.3687 0.2129
vn -0.9049 -0.4257 0.0000
vn -0.9049 -0.3687 -0.2129
vn -0.9049 -0.2129 -0.3687
vn -0.9049 -0.0000 -0.4257
vn -0.9049 0.2129 -0.3687
vn 0.0000 0.5000 -0.8660
vn -0.3692 0.4647 -0.8048
vn -0.9049 0.3687 -0.2129
vn -0.9049 0.4257 0.0000
vn -0.3692 -0.0000 -0.9293
vn -0.0000 -0.5000 -0.8660
vn -0.3692 -0.4647 -0.8048
vn -0.0000 -0.8660 -0.5000
vn -0.3692 -0.8048 -0.4647
vn -0.3692 -0.9293 0.0000
vn 0.0000 -0.8660 0.5000
vn -0.3692 -0.8048 0.4647
vn 0.0000 -0.5000 0.8660
vn -0.3692 -0.4647 0.8048
vn 0.0000 0.8660 0.5000
vn -0.3692 0.8048 0.4647
vn -0.3692 0.4647 0.8048
vn 0.0000 0.5000 0.8660
vn -0.3692 0.0000 0.9293
vn 0.3692 0.9293 0.0000
vn 0.3692 0.8048 -0.4647
vn 0.9049 0.2129 0.3687
vn 0.9048 0.3687 0.2129
vn 0.9049 0.0000 0.4257
vn 0.9049 -0.2129 0.3687
vn 0.9049 -0.3687 0.2129
vn 0.9049 -0.4257 0.0000
vn 0.9049 -0.3687 -0.2129
vn 0.9049 -0.2129 -0.3687
vn 0.9049 -0.0000 -0.4257
vn 0.9049 0.2129 -0.3687
vn 0.3692 0.4647 -0.8048
vn 0.9049 0.3687 -0.2129
vn 0.9048 0.4257 0.0000
vn 0.3692 -0.0000 -0.9293
vn 0.3692 -0.4647 -0.8048
vn 0.3692 -0.8048 -0.4647
vn 0.3692 -0.9293 0.0000
vn 0.3692 -0.8048 0.4647
vn 0.3692 -0.4647 0.8048
vn 0.3692 0.4647 0.8048
vn 0.3692 0.8048 0.4647
vn 0.3692 0.0000 0.9293
usemtl Spotlight
s off
f 9/1/1 12/2/1 33/3/1
f 4/4/1 35/5/1 10/6/1
f 5/7/2 8/8/2 31/9/2
f 5/10/3 10/11/3 9/12/3 6/13/3
f 10/6/1 11/14/1 12/2/1 9/1/1
f 6/15/2 7/16/2 8/8/2 5/7/2
f 10/11/4 5/10/4 19/17/4 17/18/4
f 1/19/2 6/15/2 13/20/2 14/21/2
f 4/4/1 10/6/1 17/22/1 15/23/1
f 9/1/1 3/24/1 18/25/1 20/26/1
f 6/13/5 9/12/5 20/27/5 13/28/5
f 5/7/2 2/29/2 16/30/2 19/31/2
f 22/32/2 21/33/2 25/34/2 26/35/2
f 21/36/4 24/37/4 28/38/4 25/39/4
f 24/37/1 23/40/1 27/41/1 28/38/1
f 23/42/5 22/32/5 26/35/5 27/43/5
f 1/19/2 29/44/2 6/15/2
f 10/6/1 35/5/1 36/45/1
f 36/45/1 11/14/1 10/6/1
f 31/9/2 32/46/2 5/7/2
f 32/46/2 2/29/2 5/7/2
f 6/15/2 29/44/2 30/47/2
f 30/47/2 7/16/2 6/15/2
f 33/3/1 34/48/1 9/1/1
f 34/48/1 3/24/1 9/1/1
f 25/49/6 28/50/6 27/51/6 26/52/6
s 1
f 2/53/7 32/54/8 35/55/8 4/56/7
f 12/57/9 7/58/9 30/59/10 33/60/10
f 2/53/7 4/56/7 15/61/5 16/62/5
f 36/63/11 31/64/11 8/65/12 11/66/12
f 11/66/12 8/65/12 7/58/9 12/57/9
f 3/67/13 1/68/13 14/69/4 18/70/4
f 3/67/13 34/71/14 29/72/14 1/68/13
f 31/64/11 36/63/11 35/55/8 32/54/8
f 33/60/10 30/59/10 29/72/14 34/71/14
f 48/73/15 73/74/16 50/75/17 37/76/6
f 54/77/18 52/78/19 49/79/4
f 56/80/20 54/77/18 49/79/4
f 58/81/21 56/80/20 49/79/4
f 60/82/22 58/81/21 49/79/4
f 62/83/23 60/82/22 49/79/4
f 64/84/24 62/83/23 49/79/4
f 66/85/25 64/84/24 49/79/4
f 68/86/26 66/85/25 49/79/4
f 70/87/27 68/86/26 49/79/4
f 47/88/28 71/89/29 73/74/16 48/73/15
f 72/90/30 70/87/27 49/79/4
f 51/91/31 72/90/30 49/79/4
f 46/92/2 69/93/32 71/89/29 47/88/28
f 45/94/33 67/95/34 69/93/32 46/92/2
f 44/96/35 65/97/36 67/95/34 45/94/33
f 43/98/3 63/99/37 65/97/36 44/96/35
f 42/100/38 61/101/39 63/99/37 43/98/3
f 41/102/40 59/103/41 61/101/39 42/100/38
f 38/104/42 53/105/43 55/106/44 39/107/45
f 37/108/6 50/109/17 53/105/43 38/104/42
f 40/110/1 57/111/46 59/103/41 41/102/40
f 39/107/45 55/106/44 57/111/46 40/110/1
f 53/112/43 50/113/17 51/91/31 52/78/19
f 55/114/44 53/112/43 52/78/19 54/77/18
f 57/115/46 55/114/44 54/77/18 56/80/20
f 59/116/41 57/115/46 56/80/20 58/81/21
f 61/117/39 59/116/41 58/81/21 60/82/22
f 63/118/37 61/117/39 60/82/22 62/83/23
f 65/119/36 63/118/37 62/83/23 64/84/24
f 67/120/34 65/119/36 64/84/24 66/85/25
f 69/121/32 67/120/34 66/85/25 68/86/26
f 71/122/29 69/121/32 68/86/26 70/87/27
f 73/123/16 71/122/29 70/87/27 72/90/30
f 50/113/17 73/123/16 72/90/30 51/91/31
f 52/78/19 51/91/31 49/79/4
f 85/124/15 74/125/6 87/126/47 110/127/48
f 91/128/49 86/129/5 89/130/50
f 93/131/51 86/129/5 91/128/49
f 95/132/52 86/129/5 93/131/51
f 97/133/53 86/129/5 95/132/52
f 99/134/54 86/129/5 97/133/53
f 101/135/55 86/129/5 99/134/54
f 103/136/56 86/129/5 101/135/55
f 105/137/57 86/129/5 103/136/56
f 107/138/58 86/129/5 105/137/57
f 84/139/28 85/124/15 110/127/48 108/140/59
f 109/141/60 86/129/5 107/138/58
f 88/142/61 86/129/5 109/141/60
f 83/143/2 84/139/28 108/140/59 106/144/62
f 82/145/33 83/143/2 106/144/62 104/146/63
f 81/147/35 82/145/33 104/146/63 102/148/64
f 80/149/3 81/147/35 102/148/64 100/150/65
f 79/151/38 80/149/3 100/150/65 98/152/66
f 78/153/40 79/151/38 98/152/66 96/154/67
f 75/155/42 76/156/45 92/157/68 90/158/69
f 74/159/6 75/155/42 90/158/69 87/160/47
f 77/161/1 78/153/40 96/154/67 94/162/70
f 76/156/45 77/161/1 94/162/70 92/157/68
f 90/163/69 89/130/50 88/142/61 87/164/47
f 92/165/68 91/128/49 89/130/50 90/163/69
f 94/166/70 93/131/51 91/128/49 92/165/68
f 96/167/67 95/132/52 93/131/51 94/166/70
f 98/168/66 97/133/53 95/132/52 96/167/67
f 100/169/65 99/134/54 97/133/53 98/168/66
f 102/170/64 101/135/55 99/134/54 100/169/65
f 104/171/63 103/136/56 101/135/55 102/170/64
f 106/172/62 105/137/57 103/136/56 104/171/63
f 108/173/59 107/138/58 105/137/57 106/172/62
f 110/174/48 109/141/60 107/138/58 108/173/59
f 87/164/47 88/142/61 109/141/60 110/174/48
f 89/130/50 86/129/5 88/142/61
